# xmcd
#
# Track frame offsets:
#	150
#	23875
#	55100
#	82837
#	110550
#	129192
#	153362
#	176480
#
# Disc length: 2773 seconds
# Revision: 0
# Processed by: cddbd v1.5.2PL0 Copyright (c) Steve Scherf et al.
# Submitted via: dBpowerAMP V12.0
#
DISCID=550ad308
DTITLE=Roberta Flack - First Take
DYEAR=1969
DGENRE=Soul and R&B
TTITLE0=Compared to What
TTITLE1=Angelitos Negros
TTITLE2=Our Ages or Our Heart
TTITLE3=I Told Jesus
TTITLE4=Hey, That's No Way to Say Goodbye
TTITLE5=The First Time Ever I Saw Your Face
TTITLE6=Tryin' Times
TTITLE7=Ballad of the Sad Young Men
EXTD=
EXTT0=
EXTT1=
EXTT2=
EXTT3=
EXTT4=
EXTT5=
EXTT6=
EXTT7=
PLAYORDER=
